<svg xmlns="http://www.w3.org/2000/svg" viewBox="0 0 240 200" fill="none">
  <defs>
    <linearGradient id="gold" x1="0" y1="0" x2="0" y2="1">
      <stop offset="0" stop-color="#f5d77a"/>
      <stop offset="0.5" stop-color="#d4af37"/>
      <stop offset="1" stop-color="#a67c1f"/>
    </linearGradient>
  </defs>
  <!-- Left minaret -->
  <g fill="url(#gold)">
    <rect x="34" y="78" width="14" height="104" rx="2"/>
    <path d="M41 58c7 0 11 6 11 13H30c0-7 4-13 11-13z"/>
    <circle cx="41" cy="52" r="4"/>
    <rect x="39" y="44" width="4" height="9" rx="2"/>
    <rect x="30" y="92" width="22" height="4"/>
    <rect x="30" y="120" width="22" height="4"/>
  </g>
  <!-- Right minaret -->
  <g fill="url(#gold)">
    <rect x="192" y="78" width="14" height="104" rx="2"/>
    <path d="M199 58c7 0 11 6 11 13h-22c0-7 4-13 11-13z"/>
    <circle cx="199" cy="52" r="4"/>
    <rect x="197" y="44" width="4" height="9" rx="2"/>
    <rect x="188" y="92" width="22" height="4"/>
    <rect x="188" y="120" width="22" height="4"/>
  </g>
  <!-- Shrine body -->
  <rect x="66" y="120" width="108" height="62" rx="3" fill="url(#gold)"/>
  <!-- Arched portal -->
  <path d="M120 138c-12 0-20 9-20 22v22h40v-22c0-13-8-22-20-22z" fill="#000000" opacity="0.35"/>
  <!-- Central golden dome (onion) -->
  <path d="M120 36c-30 14-40 44-40 64 0 14 18 22 40 22s40-8 40-22c0-20-10-50-40-64z" fill="url(#gold)"/>
  <!-- Dome neck -->
  <rect x="104" y="118" width="32" height="8" fill="url(#gold)"/>
  <!-- Finial -->
  <circle cx="120" cy="30" r="6" fill="url(#gold)"/>
  <rect x="118" y="14" width="4" height="14" rx="2" fill="url(#gold)"/>
  <circle cx="120" cy="11" r="3.5" fill="url(#gold)"/>
</svg>
